<?xml version="1.0" encoding="UTF-8" standalone="no"?>
<svg
   width="607.58673"
   height="85.09758"
   viewBox="0 0 607.58673 85.09758"
   version="1.1"
   id="svg20"
   xmlns:xlink="http://www.w3.org/1999/xlink"
   xmlns="http://www.w3.org/2000/svg"
   xmlns:svg="http://www.w3.org/2000/svg">
  <defs
     id="defs20">
    <linearGradient
       id="linearGradient167">
      <stop
         style="stop-color:#0a4a87;stop-opacity:1;"
         offset="0"
         id="stop167" />
      <stop
         style="stop-color:#07d1b2;stop-opacity:1;"
         offset="1"
         id="stop168" />
    </linearGradient>
    <linearGradient
       xlink:href="#linearGradient167"
       id="linearGradient187"
       gradientUnits="userSpaceOnUse"
       x1="510.00116"
       y1="539.38599"
       x2="510.99728"
       y2="205.19579" />
    <linearGradient
       xlink:href="#linearGradient167"
       id="linearGradient188"
       gradientUnits="userSpaceOnUse"
       x1="510.00116"
       y1="539.38599"
       x2="510.99728"
       y2="205.19579" />
    <linearGradient
       xlink:href="#linearGradient167"
       id="linearGradient189"
       gradientUnits="userSpaceOnUse"
       x1="510.00116"
       y1="539.38599"
       x2="510.99728"
       y2="205.19579" />
    <linearGradient
       xlink:href="#linearGradient167"
       id="linearGradient190"
       gradientUnits="userSpaceOnUse"
       x1="510.00116"
       y1="539.38599"
       x2="510.99728"
       y2="205.19579" />
  </defs>
  <g
     id="g1"
     transform="translate(-2.4244626,-2.5224075)">
    <g
       id="g190"
       transform="matrix(0.25399996,0,0,0.25399996,-85.579157,-49.644639)">
      <path
         d="m 502.897,205.714 c 6.845,-0.779 21.419,-0.025 28.36,0.608 52.467,4.785 95.272,30.412 137.131,60.584 -1.205,29.163 0.074,62.5 0.104,92.149 l -38.007,0.031 c -0.65,-22.282 -0.13,-46.664 -0.082,-69.157 -6.435,-5.993 -14.763,-11.846 -22.219,-16.565 -29.516,-18.682 -59.342,-27.379 -94.065,-28.401 -50.33,-0.61 -88.43,13.595 -127.242,45.052 0.646,22.176 0.209,46.547 0.262,68.869 l -40.668,0.134 c 0.6,-5.027 0.447,-12.714 0.456,-17.915 l 0.024,-28.062 -0.001,-27.515 c -0.002,-5.419 0.203,-12.291 -0.411,-17.533 4.833,-4.299 15.399,-11.43 20.951,-15.204 42.954,-29.193 83.764,-44.382 135.407,-47.075 z"
         id="path1"
         style="fill:url(#linearGradient187);fill-opacity:1" />
      <path
         d="m 629.138,381.243 c 12.731,-0.017 25.754,-0.205 38.453,0.224 -2.574,14.072 -7.023,27.736 -13.227,40.626 -27.165,57.15 -85.703,97.78 -144.022,118.319 -7.202,-1.921 -18.026,-6.009 -24.913,-8.955 -44.992,-19.241 -88.252,-51.295 -115.12,-92.546 -10.374,-15.658 -20.037,-38.871 -21.888,-57.392 12.074,0.63 26.496,0.063 38.894,-0.003 1.834,7.553 3.65,14.011 6.733,21.219 18.216,42.58 73.183,80.754 115.353,96.932 3.184,-1.872 9.042,-4.387 12.556,-6.055 6.655,-3.146 13.206,-6.506 19.645,-10.073 30.83,-17.222 60.747,-43.363 77.161,-75.083 5.396,-10.428 6.595,-17.173 10.375,-27.213 z"
         id="path2"
         style="fill:url(#linearGradient188);fill-opacity:1" />
      <path
         d="m 500.47,271.793 c 20.487,-2.323 48.708,3.647 67.595,11.291 12.491,5.055 25.438,13.41 36.784,20.715 0.402,18.13 0.119,37.01 0.089,55.196 l -75.505,0.023 c -5.734,-11.996 -12.916,-27.471 -18.851,-38.69 -2.729,5.574 -5.133,11.29 -7.595,16.988 l -13.939,32.22 c -2.272,5.334 -5.826,13.242 -7.445,18.648 -4.109,-6.683 -10.995,-21.207 -14.919,-28.878 -6.278,-0.529 -14.992,-0.328 -21.401,-0.329 l -34.291,0.016 -0.106,-54.077 c 30.657,-21.484 52.597,-29.625 89.584,-33.123 z"
         id="path3"
         style="fill:url(#linearGradient189);fill-opacity:1" />
      <path
         fill="#3A5688"
         d="m 512.479,363.353 c 2.085,1.747 7.029,14.516 8.331,17.66 l 83.753,-0.007 c -0.888,2.189 -1.81,4.364 -2.766,6.525 -15.035,33.554 -60.461,68.63 -94.456,81.578 -9.641,-4.24 -21.204,-10.901 -30.082,-16.514 -26.538,-17.171 -55.059,-41.609 -65.907,-72.098 18.165,0.375 36.334,0.553 54.502,0.535 6.813,13.001 13.953,28.987 20.477,42.455 7.266,-18.686 17.6,-42.337 26.148,-60.134 z"
         id="path4"
         style="fill:url(#linearGradient190);fill-opacity:1" />
    </g>
    <g
       id="g191"
       transform="matrix(1.0417978,0,0,1.0417978,-178.01096,-570.73115)">
      <path
         d="m 746.059,563.029 9.55,0.13 c 0.43,17.663 -0.256,38.84 0.797,55.831 -5.469,-0.023 -7.456,0.965 -8.939,-4.953 -6.308,4.633 -7.301,5.192 -14.926,4.932 -21.098,-4.75 -17.695,-51.036 13.416,-38.436 z m -7.768,48.467 c 10.536,-3.993 8.439,-12.938 7.981,-22.399 -3.083,-3.374 -4.408,-4.258 -9.127,-4.094 -11.321,6.519 -11.488,24.419 1.146,26.493 z"
         id="path5"
         style="fill:#0a4a87;fill-opacity:1;fill-rule:nonzero" />
      <path
         d="m 593.043,559.925 9.383,-0.058 c -0.576,6.316 -0.27,15.174 -0.14,21.67 5.43,-3.348 13.432,-6.13 19.342,-2.504 10.322,6.333 7.43,28.51 7.351,39.458 l -9.466,0.138 c -0.037,-6.633 -0.007,-13.267 0.089,-19.899 -0.054,-12.381 -7.051,-19.79 -17.05,-8.953 -0.909,7.365 -0.461,21.302 -0.393,29.215 l -9.165,-0.013 z"
         id="path6"
         style="fill:#0a4a87;fill-opacity:1;fill-rule:nonzero" />
      <path
         d="m 318.257,577.626 c 15.608,-1.499 17.891,11.446 18.158,23.421 -9.514,-0.133 -17.617,-0.163 -27.095,0.545 3.36,12.95 12.224,11.529 23.076,9.304 l 0.653,-0.258 0.824,0.37 c 0.83,2.042 0.643,4.015 0.671,6.258 -38.149,13.957 -46.86,-34.601 -16.287,-39.64 z m 1.673,17.081 c 2.686,-0.022 5.416,-0.069 8.099,-0.063 -1.691,-7.31 -2.811,-10.006 -10.971,-10.077 -5.077,2.504 -5.66,3.82 -7.466,9.145 l -0.282,0.837 c 3.452,0.028 7.199,-0.013 10.62,0.158 z"
         id="path7"
         style="fill:#0a4a87;fill-opacity:1;fill-rule:nonzero" />
      <path
         d="m 500.656,578.134 c 16.953,-1.098 20.914,7.449 21.247,22.877 -5.345,0.052 -22.866,-0.601 -26.646,0.7 l -0.239,0.874 c 2.191,11.438 12.628,9.881 21.372,8.029 1.103,-0.363 0.696,-0.331 1.818,-0.123 1.41,1.383 1.488,4.488 1.747,6.52 -12.308,4.021 -29.262,3.959 -34.031,-10.867 -1.806,-5.715 -1.299,-11.911 1.412,-17.256 3.014,-5.863 7.313,-8.777 13.32,-10.754 z m 5.469,16.274 6.778,0.08 c -1.791,-6.14 -2.962,-10.223 -10.504,-9.879 -3.218,1.446 -5.137,2.413 -6.485,5.909 -0.496,1.322 -0.961,2.654 -1.396,3.997 z"
         id="path8"
         style="fill:#0a4a87;fill-opacity:1;fill-rule:nonzero" />
      <path
         d="m 673.891,577.647 c 16.297,-0.741 17.974,9.331 19.314,22.651 -9.329,0.187 -18.661,0.275 -27.992,0.266 3.506,13.236 11.26,12.011 22.693,9.566 0.789,-0.08 0.325,-0.099 1.372,0.253 0.828,2.487 1.07,4.04 1.513,6.58 -1.471,0.424 -2.951,0.814 -4.439,1.171 -17.26,4.051 -31.932,-3.568 -29.957,-23.068 1.048,-10.348 7.734,-15.715 17.496,-17.419 z m 2.234,16.409 c 2.266,0.057 4.25,0.392 6.173,-0.635 1.351,-1.657 0.98,-0.752 1.297,-2.75 -1.26,-4.149 -5.155,-5.937 -9.26,-6.157 -6.337,1.642 -6.922,3.439 -9.194,9.468 z"
         id="path9"
         style="fill:#0a4a87;fill-opacity:1;fill-rule:nonzero" />
      <path
         d="m 565.519,565.101 c 6.929,-0.491 11.59,-0.056 17.849,3.049 -0.489,2.812 -1.385,5.817 -2.131,8.594 -4.067,-1.822 -20.108,-8.456 -21.177,3.412 -0.255,2.836 6.206,5.838 8.913,6.856 11.044,4.155 22.352,11.212 14.287,24.445 -3.32,5.462 -8.273,6.706 -14.203,8.065 -7.774,-0.001 -11.721,0.087 -18.848,-3.36 0.195,-3.205 0.718,-6.285 1.201,-9.458 5.585,3.908 10.058,5.441 17.074,4.501 3.126,0.209 8.526,-4.902 6.846,-8.079 -4.641,-8.777 -23,-8.554 -25.127,-20.45 -1.849,-10.342 6.217,-15.45 15.316,-17.575 z"
         id="path10"
         style="fill:#0a4a87;fill-opacity:1;fill-rule:nonzero" />
      <path
         d="m 275.521,564.67 c 4.851,-0.361 21.286,3.271 16.874,9.656 -4.116,1.532 -11.797,-1.975 -19.193,-1.959 -17.117,8.484 11.228,16.622 15.969,21.19 14.857,14.315 -0.166,25.755 -16.165,26.037 -10.998,-0.019 -15.611,-2.565 -15.359,-13.54 5.978,3.002 12.186,6.918 19.105,5.958 4.379,-0.608 9.356,-3.491 7.986,-8.614 -1.108,-3.007 -5.586,-5.259 -8.515,-6.376 -11.354,-4.333 -23.286,-12.221 -15.215,-25.796 2.607,-4.386 9.48,-5.794 14.513,-6.556 z"
         id="path11"
         style="fill:#0a4a87;fill-opacity:1;fill-rule:nonzero" />
      <path
         d="m 460.449,578.174 c 16.288,-0.574 17.798,10.894 18.003,24.511 0.081,5.381 -0.429,10.929 -0.738,16.311 l -9.247,-0.05 c 0.444,-6.185 0.398,-12.922 0.284,-19.133 -0.155,-8.478 -1.984,-16.755 -12.251,-13.456 -2.759,1.968 -3.017,2.494 -4.964,5.286 l -0.031,27.184 c -3.142,-0.043 -5.934,0.027 -9.074,0.143 -0.358,-13.466 -0.493,-26.938 -0.405,-40.409 2.526,-0.105 4.219,-0.304 6.716,0.195 1.673,1.266 1.158,1.829 2.209,4.334 2.668,-0.71 4.753,-3.675 9.498,-4.916 z"
         id="path12"
         style="fill:#0a4a87;fill-opacity:1;fill-rule:nonzero" />
      <path
         d="m 363.916,578.074 c 21.777,-0.104 17.778,25.386 16.485,40.411 l -8.894,0.014 c 0.027,-9.44 4.903,-37.631 -12.33,-31.829 -5.85,4.233 -5.101,10.338 -5.114,16.906 -0.011,5.066 0.137,10.156 0.221,15.223 l -8.848,0.081 c -0.914,-10.542 -0.467,-29.167 -0.506,-40.286 l 7.092,0.48 1.091,4.998 c 3.694,-3.781 5.73,-4.89 10.803,-5.998 z"
         id="path13"
         style="fill:#0a4a87;fill-opacity:1;fill-rule:nonzero" />
      <path
         d="m 395.093,569.699 7.432,0.066 -0.048,8.94 12.043,-0.042 c -0.129,2.321 -0.127,4.478 -0.128,6.794 l -11.879,0.122 c -0.372,5.256 -1.66,20.783 2.221,25.113 1.189,1.327 6.441,0.535 8.5,0.429 1.305,1.088 0.861,0.399 1.173,2.254 0.046,1.25 0.267,3.568 -0.546,4.453 -4.27,4.379 -13.217,2.267 -16.847,-1.843 -4.629,-5.243 -3.674,-14.216 -3.695,-20.693 -0.009,-3.106 0.08,-6.418 0.117,-9.585 -2.151,-0.042 -4.303,-0.051 -6.454,-0.027 l 0.054,-6.594 c 2.231,-0.396 4.304,-0.464 6.561,-0.602 0.4,-3.308 0.627,-5.563 1.496,-8.785 z"
         id="path14"
         style="fill:#0a4a87;fill-opacity:1;fill-rule:nonzero" />
      <path
         d="m 529.992,560.969 9.168,0.036 c -0.158,6.49 -1.615,46.389 1.337,49.107 1.887,1.737 4.64,1.406 7.028,1.411 -0.03,2.133 0.303,5.883 -0.639,7.508 -8.684,0.981 -17.108,-1.71 -17.366,-12.1 -0.376,-15.197 0.437,-30.636 0.472,-45.962 z"
         id="path15"
         style="fill:#0a4a87;fill-opacity:1;fill-rule:nonzero" />
      <path
         d="m 700.501,562.945 9.023,0.056 c -0.058,12.309 -0.61,36.358 1.045,47.604 l 5.464,0.021 c 0.159,2.115 0.833,6.299 -0.149,7.866 -0.49,0.088 -0.982,0.169 -1.475,0.243 -16.231,2.42 -13.725,-11.699 -14.002,-22.635 -0.261,-10.34 0.994,-22.145 0.164,-32.334 z"
         id="path16"
         style="fill:#0a4a87;fill-opacity:1;fill-rule:nonzero" />
      <path
         d="m 421.886,578.529 8.996,-0.039 c 0.078,11.82 0.58,29.024 -0.358,40.444 l -8.947,-0.043 c -0.167,-13.455 -0.064,-26.911 0.309,-40.362 z"
         id="path17"
         style="fill:#0a4a87;fill-opacity:1;fill-rule:nonzero" />
      <path
         d="m 638.685,578.508 9.326,0.082 c -0.085,13.37 0.117,26.775 -0.226,40.136 l -9.037,-0.182 c -0.727,-12.742 0.216,-27.131 -0.063,-40.036 z"
         id="path18"
         style="fill:#0a4a87;fill-opacity:1;fill-rule:nonzero" />
      <path
         d="m 641.47,562.202 c 1.929,-0.621 4.042,-0.154 5.53,1.221 1.487,1.376 2.118,3.446 1.65,5.417 -0.467,1.971 -1.961,3.537 -3.907,4.098 -2.947,0.848 -6.029,-0.825 -6.922,-3.757 -0.894,-2.933 0.731,-6.041 3.649,-6.979 z"
         id="path19"
         style="fill:#0a4a87;fill-opacity:1;fill-rule:nonzero" />
      <path
         d="m 424.735,564.235 c 2.539,-0.665 5.139,0.84 5.828,3.372 0.688,2.532 -0.792,5.147 -3.317,5.859 -2.56,0.723 -5.217,-0.782 -5.915,-3.348 -0.698,-2.566 0.831,-5.209 3.404,-5.883 z"
         id="path20"
         style="fill:#0a4a87;fill-opacity:1;fill-rule:nonzero" />
      <path
         style="opacity:1;fill:#0a4a87;fill-opacity:1;fill-rule:nonzero;stroke-width:2.6621"
         d="m 421.90341,598.69433 v -19.7217 h 4.22608 4.22608 v 19.7217 19.72169 h -4.22608 -4.22608 z"
         id="path180" />
      <path
         style="opacity:1;fill:#0a4a87;fill-opacity:1;fill-rule:nonzero;stroke-width:2.6621"
         d="m 554.67268,616.96343 c -2.1645,-0.87002 -3.16955,-2.45292 -3.16955,-4.99185 0,-2.98329 0.48705,-3.51991 2.46521,-2.71606 10.22179,4.15377 17.5893,3.6599 20.90557,-1.40137 3.09579,-4.72476 1.13731,-7.43312 -9.11008,-12.59828 -13.97029,-7.04167 -17.65869,-12.57628 -13.6051,-20.41507 3.32596,-6.43168 9.39433,-8.95227 19.93664,-8.28099 4.88518,0.31107 9.2543,0.93771 9.70913,1.39255 0.45484,0.45484 0.41365,2.47379 -0.0915,4.48657 -0.75924,3.02506 -1.36571,3.42026 -3.49768,2.27927 -3.94698,-2.11237 -14.84306,-1.68711 -16.78698,0.65516 -3.64614,4.39333 -1.12914,8.19309 8.58858,12.96565 9.74955,4.7882 15.29485,10.19258 15.29485,14.90619 0,4.47954 -4.46975,10.73936 -9.3075,13.03502 -4.92,2.33469 -16.31493,2.69965 -21.33157,0.68321 z"
         id="path181" />
      <path
         style="opacity:1;fill:#0a4a87;fill-opacity:1;fill-rule:nonzero;stroke-width:2.6621"
         d="m 554.67268,616.96343 c -2.1645,-0.87002 -3.16955,-2.45292 -3.16955,-4.99185 0,-2.98329 0.48705,-3.51991 2.46521,-2.71606 10.37551,4.21624 17.5921,3.65563 21.05928,-1.63595 2.03029,-3.09861 1.99514,-3.59316 -0.44758,-6.29799 -1.45798,-1.61442 -6.13739,-4.69842 -10.39868,-6.85333 -12.3349,-6.23768 -15.92007,-12.09062 -12.02263,-19.62745 3.32596,-6.43168 9.39433,-8.95227 19.93664,-8.28099 4.88518,0.31107 9.2543,0.93771 9.70913,1.39255 0.45484,0.45484 0.41365,2.47379 -0.0915,4.48657 -0.75924,3.02506 -1.36571,3.42026 -3.49768,2.27927 -3.60543,-1.92957 -14.53446,-1.72504 -16.56959,0.31009 -0.92973,0.92974 -1.69043,3.14046 -1.69043,4.91272 0,2.5728 1.95805,4.20834 9.71461,8.11448 10.10721,5.08991 15.64186,10.46457 15.64186,15.18971 0,4.47954 -4.46975,10.73936 -9.3075,13.03502 -4.92,2.33469 -16.31493,2.69965 -21.33157,0.68321 z"
         id="path182" />
    </g>
  </g>
</svg>
